<?xml version="1.0" encoding="UTF-8" standalone="no"?>
<!-- Created with Inkscape (http://www.inkscape.org/) -->

<svg
   width="216.22359mm"
   height="170.72388mm"
   viewBox="0 0 216.22359 170.72388"
   version="1.1"
   id="svg5"
   inkscape:version="1.1.2 (0a00cf5339, 2022-02-04)"
   sodipodi:docname="logo_gufiPTX.svg"
   xmlns:inkscape="http://www.inkscape.org/namespaces/inkscape"
   xmlns:sodipodi="http://sodipodi.sourceforge.net/DTD/sodipodi-0.dtd"
   xmlns="http://www.w3.org/2000/svg"
   xmlns:svg="http://www.w3.org/2000/svg">
  <sodipodi:namedview
     id="namedview7"
     pagecolor="#ffffff"
     bordercolor="#666666"
     borderopacity="1.0"
     inkscape:pageshadow="2"
     inkscape:pageopacity="0.0"
     inkscape:pagecheckerboard="0"
     inkscape:document-units="mm"
     showgrid="false"
     inkscape:zoom="0.5499273"
     inkscape:cx="631.90171"
     inkscape:cy="284.58307"
     inkscape:window-width="2486"
     inkscape:window-height="1376"
     inkscape:window-x="74"
     inkscape:window-y="27"
     inkscape:window-maximized="1"
     inkscape:current-layer="layer1"
     inkscape:snap-text-baseline="true"
     fit-margin-top="0"
     fit-margin-left="0"
     fit-margin-right="0"
     fit-margin-bottom="0" />
  <defs
     id="defs2" />
  <g
     inkscape:label="Layer 1"
     inkscape:groupmode="layer"
     id="layer1"
     transform="translate(5.2886117,-56.015926)">
    <g
       id="g201787"
       transform="translate(255.148,-36.466977)">
      <path
         style="fill:#fdc601;stroke-width:0.0846667"
         d="m -234.98034,172.67306 c 0.19914,-0.0179 0.50394,-0.0176 0.67734,8.4e-4 0.17339,0.0182 0.0105,0.0328 -0.36207,0.0325 -0.37254,0 -0.51441,-0.0152 -0.31527,-0.0331 z m 24.12777,-2.36464 c 0.0582,-0.0235 0.15345,-0.0235 0.21166,0 0.0582,0.0235 0.0106,0.0427 -0.10583,0.0427 -0.11642,0 -0.16404,-0.0192 -0.10583,-0.0427 z m 4.65666,0 c 0.0582,-0.0235 0.15346,-0.0235 0.21167,0 0.0582,0.0235 0.0106,0.0427 -0.10583,0.0427 -0.11642,0 -0.16405,-0.0192 -0.10584,-0.0427 z m 131.593169,-0.2299 c 0,-0.0176 0.0667,-0.0842 0.14817,-0.14817 0.13429,-0.1053 0.13728,-0.10231 0.032,0.032 -0.11061,0.14102 -0.18014,0.18588 -0.18014,0.11619 z m -101.730139,-1.08986 c -0.0221,-0.0582 -0.0304,-17.28894 -0.0185,-38.2905 l 0.0217,-38.184665 h 23.70667 23.70666 v 6.477 6.476995 l -15.95966,3.4e-4 -15.95967,3.4e-4 15.9385,-0.0217 15.9385,-0.0217 v -6.434443 -6.434446 h -23.66433 -23.66434 v 38.226559 38.22655 l 7.72584,0.0221 7.72583,0.0221 -7.72849,0.0207 c -6.12023,0.0164 -7.73685,-0.001 -7.76865,-0.0851 z m 49.80126,0.0494 c -0.0784,-0.0784 -0.0714,-76.479714 0.007,-76.492839 0.32122,-0.05375 15.17062,-0.0257 15.28234,0.02887 0.14078,0.06877 0.14816,1.971748 0.14816,38.194799 0,29.53788 -0.0229,38.1453 -0.1016,38.22402 -0.0775,0.0775 -1.90093,0.1016 -7.69055,0.1016 -4.17393,0 -7.61436,-0.0254 -7.6454,-0.0564 z m 45.592249,-0.11288 c 0,-0.11642 0.0192,-0.16404 0.0427,-0.10583 0.0235,0.0582 0.0235,0.15345 0,0.21166 -0.0235,0.0582 -0.0427,0.0106 -0.0427,-0.10583 z m 22.42998,-0.13405 c 0.004,-0.0986 0.0241,-0.1187 0.0512,-0.0512 0.0245,0.0611 0.0215,0.13415 -0.007,0.16228 -0.0281,0.0281 -0.0481,-0.0219 -0.0445,-0.11112 z m 4.318,-0.33867 c 0.004,-0.0986 0.0241,-0.1187 0.0512,-0.0512 0.0245,0.0611 0.0215,0.13415 -0.007,0.16228 -0.0281,0.0281 -0.0481,-0.0219 -0.0445,-0.11112 z m -7.33539,-3.08328 c 0,-1.32715 0.0117,-1.87008 0.026,-1.2065 0.0143,0.66357 0.0143,1.74942 0,2.413 -0.0143,0.66357 -0.026,0.12065 -0.026,-1.2065 z m -44.701519,-2.83634 c 1e-5,-2.84056 0.0107,-3.99034 0.0237,-2.55507 0.013,1.43527 0.013,3.75937 -2e-5,5.16466 -0.013,1.4053 -0.0237,0.23098 -0.0237,-2.60959 z m 29.493019,4.89517 c 0.0611,-0.0245 0.13415,-0.0215 0.16228,0.007 0.0281,0.0281 -0.0219,0.0481 -0.11112,0.0445 -0.0986,-0.004 -0.1187,-0.0241 -0.0512,-0.0511 z m 21.082,0 c 0.0611,-0.0245 0.13415,-0.0215 0.16228,0.007 0.0281,0.0281 -0.0219,0.0481 -0.11112,0.0445 -0.0986,-0.004 -0.1187,-0.0241 -0.0512,-0.0511 z m -20.91267,-1.10067 c 0.0611,-0.0245 0.13415,-0.0214 0.16228,0.007 0.0281,0.0281 -0.0219,0.0482 -0.11112,0.0445 -0.0986,-0.004 -0.1187,-0.0241 -0.0512,-0.0512 z m 21.082,0 c 0.0611,-0.0245 0.13415,-0.0214 0.16228,0.007 0.0281,0.0281 -0.0219,0.0482 -0.11112,0.0445 -0.0986,-0.004 -0.1187,-0.0241 -0.0512,-0.0512 z m 1.11654,-1.8368 c 0,-0.0176 0.0667,-0.0842 0.14817,-0.14817 0.13429,-0.1053 0.13728,-0.10231 0.032,0.032 -0.11061,0.14103 -0.18014,0.18589 -0.18014,0.1162 z m -23.21454,-0.36453 c 0.0611,-0.0245 0.13415,-0.0215 0.16228,0.007 0.0281,0.0281 -0.0219,0.0481 -0.11112,0.0445 -0.0986,-0.004 -0.1187,-0.0241 -0.0512,-0.0512 z m 21.082,0 c 0.0611,-0.0245 0.13415,-0.0215 0.16228,0.007 0.0281,0.0281 -0.0219,0.0481 -0.11112,0.0445 -0.0986,-0.004 -0.1187,-0.0241 -0.0512,-0.0512 z m -196.221809,-0.87352 c 0,-0.16298 0.0174,-0.22966 0.0387,-0.14817 0.0213,0.0815 0.0213,0.21485 0,0.29634 -0.0213,0.0815 -0.0387,0.0148 -0.0387,-0.14817 z m 159.904879,-1.92617 c -0.1053,-0.13428 -0.10232,-0.13727 0.032,-0.032 0.14103,0.11061 0.18589,0.18014 0.1162,0.18014 -0.0176,0 -0.0843,-0.0667 -0.14817,-0.14817 z m -142.160399,-3.381 c 0.0611,-0.0245 0.13414,-0.0214 0.16228,0.007 0.0281,0.0281 -0.0219,0.0481 -0.11113,0.0445 -0.0986,-0.004 -0.11869,-0.0241 -0.0512,-0.0512 z m 24.80733,-0.84666 c 0.0611,-0.0245 0.13415,-0.0215 0.16228,0.007 0.0281,0.0281 -0.0219,0.0482 -0.11113,0.0445 -0.0986,-0.004 -0.11869,-0.0241 -0.0512,-0.0512 z m 2.794,0 c 0.0611,-0.0245 0.13415,-0.0215 0.16228,0.007 0.0281,0.0281 -0.0219,0.0482 -0.11113,0.0445 -0.0986,-0.004 -0.11869,-0.0241 -0.0511,-0.0512 z m -38.75477,-0.16089 c 0.004,-0.0986 0.0241,-0.11869 0.0512,-0.0511 0.0245,0.0611 0.0214,0.13414 -0.007,0.16228 -0.0281,0.0281 -0.0481,-0.0219 -0.0445,-0.11113 z m 174.724149,-0.17602 c 0.0582,-0.0235 0.15346,-0.0235 0.21166,0 0.0582,0.0235 0.0106,0.0427 -0.10583,0.0427 -0.11642,0 -0.16404,-0.0192 -0.10583,-0.0427 z m -147.404669,-2.62467 c 0.0582,-0.0235 0.15346,-0.0235 0.21167,0 0.0582,0.0235 0.0106,0.0427 -0.10584,0.0427 -0.11641,0 -0.16404,-0.0192 -0.10583,-0.0427 z m 21.19452,-6.68198 c 0.004,-0.0986 0.0241,-0.11869 0.0511,-0.0512 0.0245,0.0611 0.0215,0.13414 -0.007,0.16228 -0.0281,0.0281 -0.0481,-0.0219 -0.0445,-0.11113 z m 91.38832,-5.87728 c 0,-2.72415 0.0107,-3.83857 0.0238,-2.4765 0.0131,1.36208 0.0131,3.59093 0,4.953 -0.0131,1.36208 -0.0238,0.24765 -0.0238,-2.4765 z m -87.99497,-0.67733 c 0,-0.11642 0.0192,-0.16404 0.0427,-0.10583 0.0235,0.0582 0.0235,0.15346 0,0.21166 -0.0235,0.0582 -0.0427,0.0106 -0.0427,-0.10583 z m 15.40264,-0.0494 c 0.004,-0.0986 0.0241,-0.11869 0.0512,-0.0512 0.0245,0.0611 0.0215,0.13414 -0.007,0.16228 -0.0281,0.0281 -0.0481,-0.0219 -0.0445,-0.11113 z m -69.44414,-2.5541 c -0.10532,-0.13429 -0.10232,-0.13728 0.032,-0.032 0.0815,0.0639 0.14817,0.13059 0.14817,0.14817 0,0.0697 -0.0695,0.0248 -0.18013,-0.1162 z m 69.53863,-0.48683 c 0.002,-0.1397 0.0207,-0.1866 0.0422,-0.10422 0.0215,0.0824 0.0201,0.19667 -0.003,0.254 -0.0232,0.0573 -0.0408,-0.0101 -0.039,-0.14978 z m -15.39416,-1.60867 c 1.7e-4,-0.51223 0.0141,-0.71087 0.031,-0.44141 0.0168,0.26946 0.0167,0.68856 -3.4e-4,0.93134 -0.017,0.24277 -0.0308,0.0223 -0.0306,-0.48993 z m 33.31112,0.32316 c 0.0611,-0.0244 0.13414,-0.0214 0.16228,0.007 0.0281,0.0281 -0.0219,0.0482 -0.11113,0.0445 -0.0986,-0.004 -0.11869,-0.0241 -0.0512,-0.0512 z m 31.85052,-6.47844 c -0.0233,-3.57167 -0.0135,-6.46513 0.0217,-6.4299 0.0352,0.0352 0.0543,2.95751 0.0423,6.49395 l -0.0217,6.4299 z m 31.141479,5.71644 c 0.0611,-0.0245 0.13415,-0.0215 0.16228,0.007 0.0281,0.0281 -0.0219,0.0482 -0.11112,0.0445 -0.0986,-0.004 -0.1187,-0.0241 -0.0512,-0.0511 z m -141.856439,-0.74649 c 3.4e-4,-0.37254 0.0152,-0.5144 0.0331,-0.31526 0.0179,0.19913 0.0176,0.50393 -5.9e-4,0.67733 -0.0182,0.17339 -0.0328,0.0105 -0.0325,-0.36207 z m 29.50377,-1.45484 c 0.0611,-0.0245 0.13415,-0.0214 0.16228,0.007 0.0281,0.0281 -0.0219,0.0482 -0.11113,0.0445 -0.0986,-0.004 -0.11869,-0.0241 -0.0512,-0.0512 z m -2.86279,-2.35516 c 0.10937,-0.11641 0.2179,-0.21166 0.24118,-0.21166 0.0233,0 -0.0471,0.0953 -0.15651,0.21166 -0.10937,0.11641 -0.2179,0.21166 -0.24119,0.21166 -0.0233,0 0.0471,-0.0953 0.15652,-0.21166 z m -2.20487,-2.18016 c 0.2076,-0.2212 0.38858,-0.40217 0.40216,-0.40217 0.0636,0 -0.004,0.076 -0.37746,0.42687 l -0.40216,0.37746 z m 162.661569,-2.6035 c 0,-0.11642 0.0192,-0.16405 0.0427,-0.10584 0.0235,0.0582 0.0235,0.15346 0,0.21167 -0.0235,0.0582 -0.0427,0.0106 -0.0427,-0.10583 z m -22.93382,-0.97367 c 8.5e-4,-0.23283 0.0171,-0.31804 0.0365,-0.18934 0.0195,0.1287 0.0189,0.3192 -0.001,0.42334 -0.0201,0.10413 -0.036,-10e-4 -0.0354,-0.234 z m 10.25775,-2.07434 c 0,-1.32715 0.0117,-1.87007 0.026,-1.2065 0.0143,0.66358 0.0143,1.74943 0,2.41301 -0.0143,0.66357 -0.026,0.12065 -0.026,-1.20651 z m 14.56536,-3.25966 c 1e-5,-3.11997 0.0106,-4.38402 0.0235,-2.809 0.0129,1.57502 0.0129,4.12772 -2e-5,5.67267 -0.0129,1.54495 -0.0235,0.25629 -0.0235,-2.86367 z m -39.84413,5.3975 c -0.1053,-0.13429 -0.10232,-0.13728 0.032,-0.032 0.0815,0.0639 0.14817,0.13058 0.14817,0.14817 0,0.0697 -0.0695,0.0248 -0.18014,-0.1162 z m 34.87231,-0.0772 c 0.0582,-0.0235 0.15346,-0.0235 0.21166,0 0.0582,0.0235 0.0106,0.0427 -0.10583,0.0427 -0.11642,0 -0.16404,-0.0192 -0.10583,-0.0427 z m 2.55036,-0.34609 c -0.10531,-0.13429 -0.10232,-0.13729 0.032,-0.032 0.0815,0.0639 0.14817,0.13058 0.14817,0.14816 0,0.0697 -0.0695,0.0248 -0.18014,-0.1162 z m -49.117029,-0.24658 c 0.0582,-0.0235 0.15346,-0.0235 0.21167,0 0.0582,0.0235 0.0106,0.0427 -0.10584,0.0427 -0.11641,0 -0.16404,-0.0192 -0.10583,-0.0427 z m 46.741289,-0.50976 c 0.0611,-0.0245 0.13415,-0.0215 0.16228,0.007 0.0281,0.0281 -0.0219,0.0481 -0.11112,0.0445 -0.0986,-0.004 -0.1187,-0.0241 -0.0512,-0.0512 z m -35.60906,-2.83796 -0.0197,-2.34546 -0.52917,-0.0301 -0.52916,-0.0301 0.53182,-0.0163 c 0.36337,-0.0112 0.54484,0.0176 0.57293,0.0908 0.0226,0.0589 0.0303,1.13523 0.0171,2.39183 l -0.024,2.28474 z m 34.71477,0.6361 c 0.0815,-0.0213 0.21484,-0.0213 0.29633,0 0.0815,0.0213 0.0148,0.0387 -0.14816,0.0387 -0.16299,0 -0.22966,-0.0174 -0.14817,-0.0387 z m 1.16417,-0.31227 c 0,-0.0176 0.0667,-0.0843 0.14816,-0.14817 0.13429,-0.10531 0.13728,-0.10232 0.032,0.032 -0.1106,0.14103 -0.18013,0.18589 -0.18013,0.1162 z m 1.88231,-1.3227 c 0,-0.16299 0.0174,-0.22966 0.0387,-0.14817 0.0213,0.0815 0.0213,0.21484 0,0.29633 -0.0213,0.0815 -0.0387,0.0148 -0.0387,-0.14816 z m -21.0103,-0.13406 c 0.004,-0.0986 0.0241,-0.11869 0.0512,-0.0512 0.0245,0.0611 0.0215,0.13415 -0.007,0.16228 -0.0281,0.0281 -0.0481,-0.0219 -0.0445,-0.11112 z m -10.05423,-1.68628 c 0,-0.32596 0.0157,-0.44894 0.034,-0.27327 0.0183,0.17566 0.018,0.44236 -8.5e-4,0.59266 -0.0187,0.15031 -0.0337,0.007 -0.0333,-0.31939 z m -4.78696,0.4029 c 0.29286,-0.0166 0.75006,-0.0164 1.016,3.4e-4 0.26593,0.0168 0.0263,0.0303 -0.53249,0.0302 -0.5588,-1.7e-4 -0.77638,-0.0139 -0.48351,-0.0305 z m 6.68534,0.007 c 0.0582,-0.0235 0.15346,-0.0235 0.21167,0 0.0582,0.0235 0.0106,0.0427 -0.10583,0.0427 -0.11642,0 -0.16404,-0.0192 -0.10584,-0.0427 z m 7.46103,-0.60009 c -0.1053,-0.13429 -0.10232,-0.13729 0.032,-0.032 0.14103,0.1106 0.18589,0.18013 0.1162,0.18013 -0.0176,0 -0.0843,-0.0667 -0.14817,-0.14817 z m 22.53882,0.0141 c 0.004,-0.0986 0.0241,-0.1187 0.0512,-0.0512 0.0245,0.0611 0.0215,0.13414 -0.007,0.16227 -0.0281,0.0281 -0.0481,-0.0219 -0.0445,-0.11112 z m -38.58301,-1.51695 c 0,-0.51223 0.0141,-0.71086 0.031,-0.44141 0.0169,0.26946 0.0167,0.68856 0,0.93134 -0.017,0.24277 -0.0308,0.0223 -0.0306,-0.48993 z m 0.58216,-1.11669 c 0.0815,-0.0213 0.21485,-0.0213 0.29634,0 0.0815,0.0213 0.0148,0.0387 -0.14817,0.0387 -0.16298,0 -0.22966,-0.0174 -0.14817,-0.0387 z m 29.29001,-0.23797 c 0.002,-0.1397 0.0207,-0.1866 0.0422,-0.10423 0.0215,0.0824 0.0201,0.19668 -0.003,0.254 -0.0232,0.0573 -0.0407,-0.0101 -0.039,-0.14977 z m -1.79451,-11.41964 c 0,-0.0176 0.0667,-0.0843 0.14817,-0.14816 0.13429,-0.10532 0.13728,-0.10232 0.032,0.032 -0.11061,0.14103 -0.18014,0.18588 -0.18014,0.1162 z m -0.16933,-1.11103 c 0.10937,-0.11642 0.2179,-0.21167 0.24118,-0.21167 0.0233,0 -0.0471,0.0953 -0.15651,0.21167 -0.10937,0.11642 -0.2179,0.21167 -0.24118,0.21167 -0.0233,0 0.0472,-0.0952 0.15651,-0.21167 z m -27.34065,-3.05506 c 0.004,-0.09862 0.0241,-0.118689 0.0512,-0.05115 0.0245,0.06112 0.0215,0.13414 -0.007,0.16227 -0.0281,0.0281 -0.0481,-0.0219 -0.0445,-0.11112 z m -16.425339,-0.423328 c 0.004,-0.09863 0.0241,-0.118695 0.0512,-0.05115 0.0245,0.06112 0.0214,0.134145 -0.007,0.162279 -0.0281,0.02813 -0.0482,-0.02187 -0.0445,-0.111125 z m 1.53697,-0.119945 c 0,-0.162984 0.0174,-0.229659 0.0387,-0.148167 0.0213,0.08149 0.0213,0.214842 0,0.296333 -0.0213,0.08149 -0.0387,0.01482 -0.0387,-0.148166 z m 3.04172,0.08467 c 0,-0.116416 0.0192,-0.164041 0.0427,-0.105833 0.0235,0.05821 0.0235,0.153458 0,0.211667 -0.0235,0.05821 -0.0427,0.01058 -0.0427,-0.105834 z m 22.619739,-1.947333 c 0,-0.302683 0.0154,-0.426508 0.0341,-0.275167 0.0188,0.151342 0.0188,0.398992 0,0.550334 -0.0188,0.151341 -0.0341,0.02752 -0.0341,-0.275167 z M -235.78691,92.492349 c 2.13043,-0.01259 5.61658,-0.01259 7.747,0 2.13043,0.01259 0.38735,0.0229 -3.8735,0.0229 -4.26085,0 -6.00392,-0.0103 -3.8735,-0.0229 z m 45.50194,5e-6 c 2.10363,-0.0126 5.57073,-0.0126 7.70467,-9e-6 2.13394,0.0126 0.41279,0.02291 -3.82477,0.02291 -4.23757,5e-6 -5.98352,-0.0103 -3.8799,-0.0229 z"
         id="path201793" />
      <path
         style="fill:#fc0000;stroke-width:0.0846667"
         d="M -176.28741,130.78283 V 92.555828 h 23.66434 23.66433 v 6.434447 6.434445 l -15.9385,0.0214 -15.9385,0.0214 -0.0216,9.03795 -0.0215,9.03794 15.93888,0.0214 15.93888,0.0214 0.0217,6.45584 0.0217,6.45582 h -15.9602 -15.96019 v 16.256 16.25601 h -7.70467 -7.70466 z"
         id="path201791" />
      <path
         style="fill:#010101;stroke-width:0.0846667"
         d="m -236.95107,175.73311 c -2.47242,-0.23671 -3.91517,-0.47289 -5.40785,-0.88527 -3.08353,-0.85189 -5.87938,-2.60985 -7.75263,-4.87466 -1.09656,-1.32578 -1.81657,-2.70469 -2.27036,-4.34802 -0.20102,-0.72798 -0.22313,-0.95444 -0.22758,-2.33034 -0.004,-1.22631 0.0264,-1.64803 0.15516,-2.159 0.28627,-1.13563 0.81627,-2.34641 1.41113,-3.22376 l 0.32009,-0.4721 -0.77631,-0.54307 c -0.99262,-0.69437 -2.44577,-2.13343 -3.01491,-2.98568 -1.86737,-2.79625 -2.16347,-5.9263 -0.88448,-9.34965 0.61766,-1.65322 1.49802,-3.20598 2.57392,-4.53978 0.4667,-0.57858 0.52016,-0.67964 0.40308,-0.762 -0.0742,-0.0522 -0.47255,-0.3315 -0.88512,-0.6206 -3.94289,-2.76296 -6.53991,-7.08329 -7.049,-11.72651 -0.46782,-4.26681 1.11484,-8.88664 4.33015,-12.63984 1.96869,-2.29804 4.92431,-4.76023 7.78137,-6.48232 2.39097,-1.44115 5.73758,-2.8914 8.18184,-3.54557 l 0.35983,-0.0963 v -5.796403 -5.796404 h 7.747 7.747 v 4.826 c 0,3.455437 0.0265,4.825997 0.0932,4.825997 0.20867,0 1.89379,-0.53068 3.04237,-0.9581 0.67362,-0.25068 2.21536,-0.8671 3.4261,-1.369826 5.38306,-2.235172 7.63855,-2.853418 10.45633,-2.866161 1.59956,-0.0072 2.01103,0.100365 2.52783,0.661027 0.5697,0.618049 0.77218,1.633288 0.60858,3.0514 -0.20737,1.79753 -0.69983,3.43055 -2.05536,6.81566 -1.00984,2.52185 -1.23148,3.00147 -1.84159,3.98517 l -0.40071,0.64608 0.20311,0.5403 c 0.55252,1.46973 0.87602,3.27594 0.9342,5.21599 0.0657,2.19138 -0.14646,3.69857 -0.79038,5.61446 -0.59275,1.76366 -1.79718,3.90502 -3.16684,5.63034 -1.45618,1.83431 -3.95359,4.09687 -6.07402,5.50284 -0.33817,0.22423 -0.60159,0.42094 -0.58539,0.43714 0.0162,0.0162 0.24097,-0.0433 0.49949,-0.13226 0.86915,-0.29903 3.1825,-0.85713 4.42602,-1.06779 3.40415,-0.57668 6.2576,-0.45274 8.78596,0.38162 1.11963,0.36948 2.85859,1.26176 3.74477,1.92148 1.02216,0.76095 2.49606,2.25841 3.19325,3.24428 1.17699,1.66434 2.04495,3.70286 2.43318,5.71461 0.0979,0.5071 0.19049,0.93455 0.20584,0.94991 0.0333,0.0333 0.1959,-1.99092 0.32119,-3.99783 0.0581,-0.93118 0.10324,-9.93573 0.12776,-25.50495 l 0.0379,-24.065623 7.69894,-0.02205 7.69895,-0.02205 -8.5e-4,22.013333 c -8.5e-4,12.4893 -0.0369,23.20383 -0.0841,24.76499 -0.28789,9.51156 -0.95429,13.76899 -2.78364,17.78401 -1.71193,3.75731 -4.42766,6.7654 -8.13809,9.01419 -0.97973,0.59379 -2.87948,1.55156 -3.86794,1.95006 -4.00339,1.61394 -9.17685,2.3774 -15.69006,2.31541 l -2.159,-0.0205 -0.889,0.40524 c -5.07167,2.31183 -11.97232,4.15356 -18.11867,4.83572 -1.14938,0.12757 -5.72598,0.23722 -6.56166,0.15721 z m 5.842,-3.21731 c 2.67206,-0.2423 5.33152,-0.71638 8.46992,-1.50987 1.85194,-0.46822 4.46913,-1.23494 4.41166,-1.29241 -0.0182,-0.0182 -0.67608,-0.16291 -1.46199,-0.32161 -2.54351,-0.51361 -4.23571,-1.07948 -6.30168,-2.10727 -1.88392,-0.93722 -3.55064,-2.00348 -4.95693,-3.17111 -0.52538,-0.43623 -0.70118,-0.52756 -1.397,-0.72577 -2.26713,-0.64578 -3.68275,-1.92991 -4.09709,-3.71652 -0.1953,-0.84213 0.0311,-1.37591 0.66908,-1.57719 0.14375,-0.0454 0.81381,-0.12245 1.48903,-0.17131 3.79826,-0.27486 8.33915,-1.33549 12.30915,-2.87507 1.80233,-0.69895 2.39377,-0.85451 3.24876,-0.85451 1.23035,0 2.18987,0.48653 2.72067,1.37954 0.28669,0.48231 0.28755,0.4829 1.05834,0.72853 0.8264,0.26335 2.07984,0.52983 3.31141,0.704 1.16752,0.16512 4.99497,0.1359 6.26533,-0.0478 2.05988,-0.29792 3.57195,-0.74322 4.96263,-1.46148 1.21838,-0.62927 1.45903,-0.85251 1.75987,-1.63262 1.26528,-3.28097 1.42075,-6.88752 0.41925,-9.72541 -0.56457,-1.59978 -1.37789,-2.91887 -2.55693,-4.14699 -2.99607,-3.12077 -7.00404,-4.00743 -12.70179,-2.80993 -2.41301,0.50714 -5.59345,1.55884 -10.67903,3.53131 -2.56067,0.99317 -3.72392,1.31905 -8.33966,2.33634 -2.94537,0.64914 -3.98578,0.78376 -5.05429,0.65397 -1.91659,-0.23281 -2.98456,-1.06885 -3.24793,-2.5426 -0.18392,-1.02911 0.0648,-1.75358 0.78543,-2.28757 l 0.39458,-0.2924 -0.0483,-7.5816 -0.0483,-7.5816 -0.32197,-0.67734 c -0.31705,-0.66697 -0.58858,-1.7153 -0.5857,-2.26126 0.003,-0.52667 0.25072,-1.46485 0.54542,-2.06378 0.56076,-1.1397 1.62167,-2.03409 2.88211,-2.42977 0.49144,-0.15427 0.79514,-0.18621 1.778,-0.18695 1.38589,-10e-4 1.95374,0.0964 3.51367,0.60271 1.33455,0.43319 3.79535,1.62143 4.99533,2.41209 1.00792,0.6641 2.22208,1.86371 2.68922,2.65696 0.84109,1.42831 1.03899,2.87982 0.57717,4.23334 -0.12711,0.37253 -0.30444,0.79613 -0.39408,0.94132 -0.15461,0.25046 -0.16297,0.46213 -0.16297,4.12751 0,2.12492 0.0184,3.8635 0.041,3.8635 0.12319,0 2.33074,-0.92425 3.09172,-1.29443 2.31577,-1.12652 5.32961,-3.53685 7.16834,-5.7329 0.74968,-0.89537 1.78891,-2.4262 2.19645,-3.23545 1.10852,-2.20124 1.60351,-4.65666 1.39981,-6.94382 -0.14797,-1.6613 -0.35706,-2.5489 -1.0625,-4.5104 -0.40883,-1.13674 -0.38948,-1.21431 0.72388,-2.90183 0.74041,-1.12226 1.17102,-1.97245 1.97377,-3.89699 0.34377,-0.82418 0.8134,-1.91761 1.04361,-2.42985 1.10087,-2.4494 1.12564,-3.40771 0.0953,-3.68515 -0.83616,-0.225162 -2.26713,0.21934 -6.46278,2.00754 -5.96045,2.54036 -7.2518,2.9558 -10.46253,3.36587 -2.05674,0.26269 -3.19034,0.36011 -5.50333,0.47295 -4.35271,0.21236 -7.37109,0.72741 -10.61665,1.81163 -4.41438,1.47467 -8.23546,3.80433 -11.59913,7.07184 -2.99284,2.90727 -4.56638,5.75285 -5.0521,9.13618 -0.12873,0.89669 -0.0559,3.04699 0.13181,3.89412 0.58509,2.63981 1.98195,5.12213 3.91796,6.96248 0.9693,0.9214 1.90642,1.6083 3.43038,2.5144 1.16027,0.68986 1.92341,1.37571 1.92263,1.72791 -7.6e-4,0.33825 -0.34905,0.7843 -1.37726,1.76378 -1.20821,1.15095 -1.92272,2.08337 -2.59008,3.37997 -2.57814,5.00905 -1.26664,8.65816 4.1221,11.46932 1.1287,0.58881 1.539,0.9393 1.539,1.31462 0,0.42882 -0.20747,0.72025 -0.96049,1.3492 -0.38858,0.32456 -0.86857,0.77413 -1.06664,0.99906 -0.42178,0.47895 -1.03285,1.69975 -1.24301,2.48328 -0.1954,0.72852 -0.19747,2.20592 -0.004,2.99118 0.82912,3.36836 4.05569,6.18208 8.32589,7.26053 2.74961,0.69443 6.18897,0.87906 9.97677,0.5356 z m 152.399999,-1.61266 c -1.52292,-0.30918 -2.15563,-0.88943 -2.15682,-1.97798 -8.4e-4,-0.45445 0.0427,-0.62574 0.24764,-0.98312 0.13652,-0.23803 0.36769,-0.5333 0.51369,-0.65616 l 0.26548,-0.22339 -0.26354,-0.22175 c -0.66093,-0.55614 -0.68828,-1.38846 -0.0752,-2.29035 l 0.24001,-0.3531 -0.23227,-0.4477 c -0.20019,-0.38584 -0.23228,-0.54761 -0.23228,-1.17089 0,-1.25379 0.47186,-2.04121 1.49952,-2.5024 0.59341,-0.26631 0.81741,-0.27741 3.45348,-0.17114 1.61661,0.0652 1.69334,0.0912 1.69334,0.57508 0,0.4872 -0.1141,0.57092 -0.77811,0.57092 -0.57912,0 -0.59729,0.006 -0.46236,0.15518 0.42683,0.47165 0.50275,1.71102 0.15322,2.5012 -0.22765,0.51464 -0.77782,1.02381 -1.35334,1.25246 -0.68042,0.27033 -1.91631,0.27717 -2.48655,0.0138 -0.32513,-0.15018 -0.41439,-0.16322 -0.49039,-0.0716 -0.16295,0.19633 -0.25099,0.63626 -0.16998,0.84933 0.15674,0.41227 0.4031,0.48096 2.01225,0.56107 1.64646,0.082 2.18324,0.19532 2.70091,0.57033 0.56232,0.40734 0.74769,0.7889 0.74538,1.53431 -0.002,0.48449 -0.045,0.71527 -0.18332,0.97367 -0.38866,0.72576 -1.24365,1.29504 -2.2243,1.48101 -0.43122,0.0818 -2.06361,0.10292 -2.41641,0.0313 z m 2.56009,-1.17449 c 1.05253,-0.42155 1.23966,-1.66206 0.31857,-2.11188 -0.27601,-0.1348 -0.57083,-0.17201 -1.59364,-0.20115 l -1.25498,-0.0358 -0.29741,0.28581 c -0.3978,0.3823 -0.53697,0.66983 -0.53697,1.10944 0,0.59232 0.25346,0.84457 1.05834,1.05328 0.55629,0.14426 1.83498,0.089 2.30609,-0.0997 z m -0.65524,-5.7319 c 0.58184,-0.21652 0.87555,-0.79575 0.83279,-1.6424 -0.0493,-0.97735 -0.46195,-1.40371 -1.41027,-1.45729 -0.96683,-0.0546 -1.51018,0.32807 -1.70593,1.20156 -0.32033,1.42935 0.87437,2.42247 2.28341,1.89813 z m 19.13481,6.90195 c -0.11641,-0.0195 -0.45594,-0.11468 -0.75451,-0.21159 -1.57163,-0.51013 -1.89338,-2.16264 -0.65423,-3.36009 l 0.29577,-0.28581 -0.25089,-0.21111 c -0.66327,-0.55811 -0.67576,-1.4999 -0.0311,-2.34511 l 0.22239,-0.29156 -0.23922,-0.40697 c -0.21945,-0.37334 -0.23921,-0.47693 -0.23915,-1.25364 6e-5,-0.75406 0.0247,-0.89296 0.22527,-1.27 0.29794,-0.56004 0.68177,-0.91473 1.2913,-1.19327 0.56574,-0.25853 0.81066,-0.27024 3.43636,-0.16439 1.61661,0.0652 1.69334,0.0912 1.69334,0.57508 0,0.4859 -0.11478,0.57092 -0.77075,0.57092 h -0.59545 l 0.16549,0.23283 c 0.36624,0.51528 0.44161,1.26221 0.2109,2.08995 -0.11713,0.42018 -0.23018,0.60089 -0.62178,0.99393 -0.40702,0.40851 -0.57044,0.50827 -1.09237,0.6668 -0.75291,0.22869 -1.61512,0.20132 -2.22878,-0.0708 l -0.40307,-0.17871 -0.12486,0.19057 c -0.35232,0.53769 -0.15489,1.07865 0.44871,1.22952 0.17212,0.043 0.90351,0.10018 1.62529,0.12702 1.48684,0.0553 2.0191,0.17721 2.54997,0.58417 1.1976,0.91808 0.86741,2.83007 -0.61878,3.58318 -0.63288,0.32071 -1.36273,0.45612 -2.39686,0.4447 -0.51223,-0.006 -1.02658,-0.0262 -1.143,-0.0457 z m 2.4899,-1.1397 c 0.46157,-0.15131 0.86081,-0.55522 0.97764,-0.98904 0.0834,-0.30986 0.0754,-0.40751 -0.0551,-0.66993 -0.26262,-0.52808 -0.6195,-0.64442 -2.09875,-0.68417 l -1.27412,-0.0342 -0.35312,0.3831 c -0.845,0.91671 -0.55329,1.83359 0.66522,2.09082 0.47214,0.0997 1.71018,0.0438 2.13823,-0.0966 z m -0.5665,-5.75621 c 0.57372,-0.17749 0.91058,-0.85567 0.8554,-1.72218 -0.0395,-0.62066 -0.32855,-1.0848 -0.79757,-1.28077 -0.36043,-0.15059 -1.14353,-0.15192 -1.50106,-0.003 -1.06111,0.44337 -1.1896,2.38633 -0.19243,2.90965 0.51275,0.26909 0.98598,0.29681 1.63566,0.0958 z m -31.54321,3.90122 c -1.03665,-0.33799 -1.62372,-1.25184 -1.51028,-2.35093 0.15834,-1.53424 1.52272,-2.30059 4.09584,-2.30059 h 0.72416 l -0.0379,-0.72161 c -0.0289,-0.54963 -0.0786,-0.77665 -0.2089,-0.9525 -0.60975,-0.82316 -1.79562,-0.90622 -3.24268,-0.22716 -0.36871,0.17302 -0.72475,0.29372 -0.79121,0.26821 -0.16263,-0.0624 -0.22589,-0.44148 -0.13101,-0.7851 0.0634,-0.2297 0.16955,-0.32649 0.58649,-0.53483 1.56485,-0.78196 3.69107,-0.65333 4.54685,0.27508 0.56308,0.61087 0.56943,0.65723 0.56943,4.15747 v 3.13055 l -0.23046,0.0811 c -0.14454,0.0509 -0.34972,0.0517 -0.55033,0.002 -0.30633,-0.0757 -0.32167,-0.0964 -0.36221,-0.48952 l -0.0423,-0.41051 -0.33867,0.27382 c -0.8801,0.71158 -2.02167,0.92841 -3.07681,0.58439 z m 2.13992,-1.09457 c 0.18932,-0.0926 0.5252,-0.32417 0.74639,-0.51459 l 0.40217,-0.3462 v -0.84858 -0.84858 l -1.0795,0.0297 c -0.94721,0.026 -1.13137,0.0556 -1.50271,0.24133 -0.60498,0.30258 -0.82886,0.66963 -0.78561,1.28799 0.0363,0.51854 0.1666,0.73213 0.61615,1.00981 0.35168,0.21723 1.14785,0.21185 1.60311,-0.0109 z m -20.780109,1.11332 -0.21166,-0.0636 -0.0218,-5.35321 -0.0218,-5.35321 0.23346,-0.0905 c 0.28537,-0.11066 1.04174,-0.0353 1.13596,0.11317 0.0377,0.0594 0.0686,2.45122 0.0686,5.31507 0,2.86385 -0.0309,5.25563 -0.0686,5.31507 -0.0821,0.1294 -0.81629,0.20661 -1.11416,0.1172 z m 4.08517,-0.0162 -0.1905,-0.0766 v -3.89948 -3.89949 l 0.23283,-0.0898 c 0.28511,-0.10993 0.86638,-0.0443 0.96341,0.10871 0.0391,0.0617 0.0717,0.31523 0.0725,0.56331 l 0.001,0.45107 0.4445,-0.39052 c 0.24447,-0.21478 0.649249,-0.49122 0.899489,-0.6143 1.13549,-0.55849 2.55554,-0.21113 3.1723,0.77598 l 0.24064,0.38513 0.51663,-0.46752 c 0.96388,-0.87227 1.8852,-1.14262 2.89422,-0.84929 0.64716,0.18814 1.23812,0.73463 1.50232,1.38929 0.18819,0.46632 0.19282,0.55078 0.19319,3.52576 v 3.048 l -0.3175,0.0784 c -0.19484,0.0481 -0.44016,0.0481 -0.635,0 l -0.3175,-0.0784 -0.0461,-2.794 c -0.0477,-2.88919 -0.0721,-3.09336 -0.43143,-3.60987 -0.17224,-0.24756 -0.71063,-0.49646 -1.07389,-0.49646 -0.40904,0 -1.08912,0.4098 -1.57964,0.95183 l -0.46496,0.51381 -0.0223,2.71734 -0.0223,2.71735 -0.3175,0.0784 c -0.19484,0.0481 -0.44015,0.0481 -0.635,0 l -0.3175,-0.0784 -0.0423,-2.794 -0.0423,-2.794 -0.23616,-0.48088 c -0.18889,-0.38465 -0.30861,-0.51596 -0.59822,-0.65617 -0.19915,-0.0964 -0.47592,-0.17528 -0.61507,-0.17528 -0.41619,0 -1.09252,0.39943 -1.594639,0.94178 l -0.46958,0.50721 v 2.7066 2.7066 l -0.21718,0.0826 c -0.26473,0.10065 -0.69009,0.0985 -0.94699,-0.005 z m 30.055819,0 -0.19135,-0.0769 0.022,-3.91788 0.022,-3.91788 0.36027,-0.076 c 0.21706,-0.0458 0.46948,-0.0447 0.635,0.003 l 0.27473,0.0788 0.022,3.91445 0.022,3.91445 -0.21803,0.0829 c -0.26578,0.10106 -0.69069,0.0989 -0.94868,-0.005 z m 3.98018,0 -0.1905,-0.0766 v -3.92984 -3.92986 l 0.1905,-0.0511 c 0.29067,-0.0779 0.64909,-0.0631 0.83106,0.0343 0.13639,0.073 0.16377,0.1806 0.16377,0.64349 v 0.55586 l 0.46569,-0.42561 c 0.25613,-0.23409 0.68476,-0.53319 0.9525,-0.66467 0.4273,-0.20982 0.57997,-0.23861 1.24881,-0.23548 0.6563,0.003 0.82235,0.0349 1.19701,0.22945 0.59739,0.31019 1.01597,0.82471 1.22086,1.50069 0.15487,0.51093 0.16571,0.76789 0.14477,3.43096 l -0.0226,2.87866 -0.3175,0.0784 c -0.19484,0.0481 -0.44015,0.0481 -0.635,0 l -0.3175,-0.0784 -0.0423,-2.794 c -0.0371,-2.44902 -0.0611,-2.83567 -0.19454,-3.13151 -0.57636,-1.27803 -1.86158,-1.29805 -3.05433,-0.0476 l -0.47646,0.49951 v 2.71772 2.71771 l -0.21718,0.0826 c -0.26474,0.10065 -0.69009,0.0985 -0.94699,-0.005 z m -4.13135,-9.68784 c -0.31279,-0.3128 -0.26531,-1.10547 0.08,-1.33606 0.0512,-0.0342 0.31223,-0.0628 0.57999,-0.0635 0.64364,-0.002 0.8255,0.16672 0.8255,0.76456 0,0.59721 -0.24673,0.84281 -0.84667,0.84281 -0.34474,0 -0.47263,-0.0416 -0.63885,-0.20781 z m -20.35848,-11.22535 c -1.39682,-0.29162 -2.34316,-1.30646 -2.63033,-2.82071 -0.1193,-0.62905 -0.0925,-1.97639 0.0514,-2.58692 0.49313,-2.09203 2.38092,-3.21589 4.48735,-2.67145 1.37963,0.35659 2.14647,1.41683 2.29267,3.16989 0.046,0.55097 0.0306,0.71125 -0.0848,0.88739 l -0.14085,0.21496 h -2.63447 -2.63448 l 0.0442,0.48683 c 0.099,1.08934 0.55156,1.81595 1.31434,2.11026 0.76536,0.29532 2.04807,0.18535 3.26208,-0.27966 0.49153,-0.18827 0.58133,-0.11053 0.54725,0.47376 -0.0188,0.32172 -0.0637,0.40617 -0.30093,0.56556 -0.58033,0.38992 -2.62696,0.6477 -3.57346,0.45009 z m 2.77281,-5.3158 c -0.0739,-0.81465 -0.45673,-1.39361 -1.09908,-1.662 -0.3886,-0.16237 -1.24696,-0.17012 -1.61911,-0.0146 -0.66021,0.27585 -1.15496,0.97324 -1.29013,1.81851 l -0.0561,0.35108 h 2.05458 2.05458 z m 9.20752,5.2902 c -0.55917,-0.18511 -0.83701,-0.36156 -1.215,-0.77164 -0.64607,-0.70091 -0.94106,-1.69737 -0.94106,-3.17893 0,-2.03181 0.59654,-3.29996 1.84033,-3.91228 0.51473,-0.2534 0.63556,-0.27857 1.32995,-0.27704 0.87867,0.002 1.29275,0.15792 1.94627,0.73316 l 0.38384,0.33788 v -2.19816 c 0,-2.51141 -0.0258,-2.42451 0.71967,-2.42451 0.78618,0 0.72374,-0.52785 0.69909,5.91031 l -0.0218,5.68297 -0.31244,0.0772 c -0.19131,0.0473 -0.42109,0.0462 -0.59267,-0.003 -0.27131,-0.0774 -0.28157,-0.0965 -0.32255,-0.60222 l -0.0423,-0.52226 -0.46566,0.38964 c -0.68257,0.57114 -1.26225,0.81216 -2.03033,0.84419 -0.37454,0.0156 -0.77611,-0.0196 -0.97534,-0.0856 z m 1.88949,-1.24149 c 0.20102,-0.0912 0.61059,-0.40123 0.91017,-0.68889 l 0.54467,-0.52303 v -1.59341 -1.5934 l -0.47635,-0.47636 c -1.37836,-1.37836 -2.89639,-1.08263 -3.43119,0.66844 -0.15077,0.49365 -0.17059,0.73159 -0.13762,1.651 0.0409,1.14032 0.15465,1.57799 0.54881,2.11171 0.43493,0.58893 1.30508,0.77815 2.04151,0.44394 z m -27.564659,1.18803 -0.1905,-0.0817 v -5.24601 c 0,-4.65621 0.015,-5.26097 0.13305,-5.37906 0.11521,-0.11521 0.48373,-0.13305 2.74869,-0.13305 2.49936,0 2.61954,0.007 2.70328,0.16377 0.11941,0.22311 0.11073,0.79528 -0.0139,0.91996 -0.0733,0.0733 -0.66228,0.1016 -2.11667,0.1016 h -2.01506 v 1.86267 1.86267 h 1.93827 c 2.15385,0 2.04106,-0.0328 2.04106,0.59266 0,0.62542 0.11279,0.59267 -2.04106,0.59267 h -1.93827 l -10e-4,2.26483 c -8.5e-4,1.24566 -0.0329,2.3146 -0.0714,2.37542 -0.0882,0.13916 -0.9218,0.21253 -1.1761,0.10353 z m 7.703819,-0.005 -0.19134,-0.0769 0.022,-3.91508 0.022,-3.91509 0.3175,-0.0751 c 0.18462,-0.0437 0.45039,-0.0437 0.635,0 l 0.3175,0.0751 0.022,3.91444 0.022,3.91445 -0.21802,0.0829 c -0.26579,0.10105 -0.6907,0.0989 -0.94869,-0.005 z m 12.53152,3.4e-4 -0.1905,-0.0766 v -5.751 c 0,-6.44101 -0.0649,-5.85382 0.64749,-5.85382 0.2088,0 0.45334,0.0394 0.5434,0.0877 0.15944,0.0853 0.16377,0.23903 0.16377,5.80176 v 5.71412 l -0.21717,0.0826 c -0.26474,0.10065 -0.6901,0.0985 -0.94699,-0.005 z m -12.67293,-9.67813 c -0.32232,-0.32232 -0.28112,-1.11117 0.0703,-1.3458 0.0512,-0.0342 0.31223,-0.0628 0.57999,-0.0635 0.65101,-0.002 0.8255,0.16458 0.8255,0.78685 0,0.62923 -0.11909,0.75762 -0.74472,0.80287 -0.46412,0.0336 -0.53439,0.0162 -0.73104,-0.18042 z m 40.65612,-8.40049 c -0.94217,-0.22836 -1.474,-0.62133 -1.72289,-1.27304 -0.26672,-0.6984 -0.0582,-1.46333 0.57912,-2.12422 l 0.34152,-0.35415 -0.29999,-0.28292 c -0.63909,-0.60274 -0.58277,-1.60257 0.1361,-2.41572 0.15537,-0.17574 0.15756,-0.20074 0.0299,-0.34177 -0.48044,-0.53088 -0.58403,-1.84137 -0.21012,-2.6581 0.38351,-0.83771 1.05242,-1.33049 2.06117,-1.51844 0.29054,-0.0541 0.69888,-0.0675 0.96813,-0.0317 0.25612,0.0341 1.11337,0.0857 1.905,0.11477 l 1.43934,0.0528 0.0271,0.3306 c 0.0149,0.18182 0.005,0.41995 -0.0228,0.52916 -0.0463,0.1845 -0.0916,0.19857 -0.6385,0.19857 h -0.58867 l 0.20928,0.39361 c 0.17022,0.32014 0.20928,0.51488 0.20928,1.04325 0,0.89928 -0.1807,1.37956 -0.72316,1.92202 -0.36355,0.36355 -0.54474,0.47133 -1.05068,0.62501 -0.76185,0.2314 -1.73571,0.20457 -2.27593,-0.0627 -0.31896,-0.15781 -0.35831,-0.16081 -0.47088,-0.0358 -0.0676,0.075 -0.14897,0.24112 -0.18093,0.36917 -0.16676,0.66821 0.30985,0.98804 1.48425,0.996 1.94264,0.0132 2.8672,0.22328 3.46026,0.78634 0.38516,0.36567 0.51924,0.71431 0.51824,1.34761 -0.002,1.20376 -0.79335,2.05754 -2.219,2.39366 -0.66852,0.15762 -2.30747,0.1554 -2.96514,-0.004 z m 2.96486,-1.13732 c 0.5384,-0.23255 0.79479,-0.56364 0.84491,-1.0911 0.0299,-0.31461 -8.5e-4,-0.43902 -0.15468,-0.63444 -0.31675,-0.4013 -0.67266,-0.4964 -2.02785,-0.54181 l -1.22941,-0.0412 -0.26683,0.22453 c -0.31061,0.26135 -0.61869,0.85036 -0.61869,1.18284 0,0.77415 0.79657,1.17217 2.24366,1.1211 0.56103,-0.0198 0.87987,-0.0778 1.20889,-0.21992 z m -0.94038,-5.60127 c 0.75731,-0.19069 1.20834,-0.95183 1.10102,-1.858 -0.10345,-0.87347 -0.65728,-1.34685 -1.57576,-1.34685 -0.28701,0 -0.62473,0.0535 -0.75047,0.11896 -1.26136,0.65628 -1.09159,2.78206 0.24743,3.0982 0.414,0.0978 0.54739,0.0961 0.97778,-0.0123 z m -47.658749,3.86016 c -1.32867,-0.32208 -2.19764,-1.11856 -2.62358,-2.40475 -0.1747,-0.52754 -0.18503,-0.73282 -0.21656,-4.30942 -0.0182,-2.06553 -0.0108,-3.84439 0.0165,-3.95303 0.0392,-0.15601 0.12589,-0.20898 0.41267,-0.25198 0.19969,-0.03 0.49483,-0.0204 0.65584,0.0213 l 0.29275,0.0758 0.046,3.8047 c 0.0415,3.43121 0.0616,3.84874 0.20474,4.25344 0.18751,0.5302 0.70075,1.14431 1.14632,1.37163 0.72676,0.37076 1.98297,0.37047 2.71038,-6e-4 0.41152,-0.20994 0.880339,-0.76016 1.071999,-1.25813 0.1344,-0.34917 0.15584,-0.82039 0.1951,-4.28663 l 0.0441,-3.89434 0.35175,-0.0742 c 0.20535,-0.0433 0.48726,-0.0421 0.67734,0.003 l 0.32558,0.077 0.0221,3.70513 c 0.0242,4.07243 0,4.34365 -0.479,5.28438 -0.28,0.55029 -0.8159,1.12583 -1.32836,1.4266 -0.825479,0.48451 -2.442859,0.67271 -3.525609,0.41024 z m 13.709159,0.0162 c -0.23235,-0.0656 -0.53651,-0.23808 -0.7086,-0.40189 -0.56686,-0.5396 -0.57305,-0.57626 -0.61998,-3.67367 l -0.0423,-2.794 -0.59033,-0.0255 c -0.34019,-0.0147 -0.61766,-0.0685 -0.65486,-0.127 -0.0355,-0.0558 -0.0645,-0.25394 -0.0645,-0.44021 0,-0.18626 0.0291,-0.38435 0.0645,-0.4402 0.0372,-0.0585 0.31467,-0.11232 0.65486,-0.127 l 0.59033,-0.0255 0.0423,-0.97366 0.0423,-0.97367 0.53656,-0.0254 c 0.3227,-0.0153 0.58423,0.0142 0.65617,0.0739 0.0896,0.0744 0.1196,0.33018 0.1196,1.02023 v 0.92097 h 0.99907 c 0.66416,0 1.03313,0.0341 1.10067,0.1016 0.0559,0.0559 0.1016,0.24326 0.1016,0.41641 0,0.58834 0.0113,0.58265 -1.15663,0.58265 h -1.05386 l 0.0257,2.56117 c 0.0222,2.20367 0.0455,2.59728 0.16756,2.81985 0.25222,0.46005 0.75489,0.57134 1.47555,0.32667 0.46159,-0.15671 0.53824,-0.0996 0.54034,0.40256 0.002,0.42763 -0.0648,0.56446 -0.3451,0.70942 -0.34799,0.17995 -1.38929,0.23101 -1.88102,0.0922 z m 11.07508,0.0582 c -0.76575,-0.17003 -1.27541,-0.5308 -1.60479,-1.13599 -0.20733,-0.38093 -0.2466,-0.55145 -0.25098,-1.08968 -0.005,-0.5623 0.0259,-0.69312 0.2568,-1.1015 0.5492,-0.9714 1.77959,-1.435 3.82147,-1.43991 l 0.6985,-0.002 v -0.60827 c 0,-0.69019 -0.20656,-1.23303 -0.55643,-1.46227 -0.63991,-0.41929 -1.80396,-0.34856 -2.89823,0.1761 -0.80138,0.38423 -0.89858,0.36394 -0.931,-0.19436 -0.0237,-0.4072 -0.007,-0.45025 0.254,-0.64705 0.93099,-0.70268 2.87485,-0.93592 4.06027,-0.48719 0.61007,0.23094 1.1067,0.75309 1.30637,1.3735 0.12199,0.37905 0.15179,0.91018 0.18351,3.27036 0.0208,1.5498 0.0147,2.91021 -0.0136,3.02312 -0.0593,0.23622 -0.45867,0.3513 -0.89021,0.25652 -0.24798,-0.0545 -0.26063,-0.0774 -0.26063,-0.47385 0,-0.38211 -0.0895,-0.5296 -0.20651,-0.34028 -0.11248,0.18201 -0.97472,0.67793 -1.39635,0.80313 -0.42948,0.12752 -1.18365,0.16556 -1.57214,0.0793 z m 1.778,-1.20321 c 0.18627,-0.0858 0.51965,-0.31684 0.74084,-0.51333 l 0.40216,-0.35727 v -0.84948 -0.84949 l -1.08055,0.0337 c -0.93968,0.0293 -1.13503,0.0609 -1.49843,0.24285 -0.52644,0.26351 -0.73717,0.5521 -0.78186,1.0707 -0.0434,0.50372 0.15084,0.91782 0.5582,1.18996 0.36924,0.24666 1.16114,0.26212 1.65964,0.0324 z m -18.30916,1.08848 -0.1905,-0.0766 v -5.71475 c 0,-5.56335 0.004,-5.71707 0.16377,-5.80239 0.18004,-0.0964 0.70201,-0.11425 1.00039,-0.0343 l 0.1905,0.0511 v 5.74448 c 0,5.59274 -0.004,5.74679 -0.16377,5.83212 -0.19757,0.10574 -0.73772,0.10593 -1.00039,3.4e-4 z m 9.6883,-0.0185 c -0.13281,-0.0974 -0.14247,-0.41424 -0.12201,-4.00013 l 0.0222,-3.8943 0.33866,-0.0707 c 0.21006,-0.0438 0.42709,-0.0367 0.5715,0.0187 0.22404,0.086 0.23284,0.11229 0.23284,0.69637 v 0.60701 l 0.52715,-0.57529 c 0.28993,-0.31641 0.68046,-0.64494 0.86783,-0.73006 0.58585,-0.26613 1.55718,-0.15708 1.74617,0.19604 0.0949,0.17726 0.069,1.03554 -0.0343,1.13886 -0.0298,0.0298 -0.28549,-0.0106 -0.56812,-0.09 -0.82137,-0.23047 -1.26827,-0.004 -1.99113,1.00899 l -0.37827,0.53009 v 2.55251 2.55251 l -0.21718,0.0826 c -0.30294,0.11518 -0.82325,0.10302 -0.99535,-0.0233 z m 13.89136,0.0475 c -0.13928,-0.0364 -0.14816,-0.38532 -0.14816,-5.8223 v -5.78358 l 0.1905,-0.0511 c 0.29838,-0.08 0.82035,-0.0621 1.00039,0.0343 0.15571,0.0833 0.16377,0.20022 0.16377,2.3757 v 2.28806 l 0.40217,-0.33764 c 0.22119,-0.1857 0.61172,-0.44515 0.86783,-0.57654 0.40441,-0.20747 0.56034,-0.23867 1.18534,-0.23719 0.89708,0.002 1.4604,0.22721 1.94416,0.77679 0.61197,0.69523 0.62776,0.79484 0.66101,4.17196 0.0274,2.78286 0.0187,3.01106 -0.11865,3.1115 -0.17572,0.12849 -0.69406,0.14187 -0.99934,0.0258 l -0.21718,-0.0826 v -2.61183 c 0,-2.89889 -0.0479,-3.2482 -0.51937,-3.78514 -0.67368,-0.76727 -1.78688,-0.55069 -2.81413,0.54752 l -0.39184,0.41891 v 2.71505 2.71506 l -0.21717,0.0826 c -0.21929,0.0834 -0.71638,0.0955 -0.98933,0.0242 z m 9.017,-0.0243 -0.1905,-0.0812 0.001,-3.83389 c 8.5e-4,-2.10864 0.0352,-3.88752 0.0768,-3.95307 0.10202,-0.16115 1.03334,-0.1746 1.22246,-0.0177 0.1249,0.10366 0.13871,0.49425 0.13754,3.89369 -8.5e-4,2.07816 -0.0353,3.83219 -0.0769,3.89785 -0.0919,0.14512 -0.89883,0.21009 -1.17066,0.0942 z m 12.065,0.0243 c -0.13928,-0.0364 -0.14816,-0.38536 -0.14816,-5.82312 0,-6.47838 -0.065,-5.88718 0.64749,-5.88718 0.74437,0 0.70717,-0.12933 0.70717,2.45929 v 2.28399 l 0.48042,-0.3913 c 0.73101,-0.59542 1.12474,-0.74467 1.97492,-0.74863 1.17899,-0.005 1.87864,0.41948 2.34222,1.42271 l 0.24011,0.51961 0.0262,3.00312 c 0.0243,2.78059 0.0152,3.01115 -0.12202,3.1115 -0.17572,0.12849 -0.69406,0.14187 -0.99934,0.0258 l -0.21718,-0.0826 v -2.53793 c 0,-2.66582 -0.0527,-3.19198 -0.36687,-3.665 -0.2247,-0.33829 -0.82994,-0.65926 -1.24311,-0.65926 -0.45569,0 -1.1047,0.36719 -1.63889,0.92724 l -0.47647,0.49952 v 2.71771 2.71772 l -0.21717,0.0826 c -0.21929,0.0834 -0.71638,0.0955 -0.98933,0.0242 z m -12.17959,-9.66837 c -0.16462,-0.1333 -0.19686,-0.23893 -0.19686,-0.64493 0,-0.62354 0.18683,-0.80433 0.83116,-0.80433 0.65774,0 0.81379,0.14704 0.81379,0.7668 0,0.67118 -0.16117,0.84186 -0.79495,0.84186 -0.32066,0 -0.5148,-0.0474 -0.65314,-0.1594 z m -40.250239,-11.31318 c -1.47095,-0.30419 -2.71172,-1.24072 -3.34438,-2.52431 -0.43507,-0.88269 -0.58931,-1.62885 -0.59115,-2.859822 -0.005,-3.257629 1.88471,-5.398149 4.97575,-5.636513 1.42674,-0.110021 3.450519,0.505379 3.738179,1.136718 0.12454,0.273338 0.11258,0.803419 -0.0223,0.987867 -0.10598,0.144934 -0.14723,0.13442 -0.74083,-0.188856 -1.01151,-0.550856 -1.694799,-0.718741 -2.769759,-0.680526 -0.80709,0.02869 -0.97033,0.0621 -1.48386,0.303716 -1.40054,0.65894 -2.19627,2.107405 -2.19919,4.003212 -0.003,2.201714 1.00744,3.724084 2.77916,4.185554 0.88221,0.22979 2.06537,0.13537 2.769869,-0.22103 l 0.3175,-0.16063 v -1.56251 -1.56252 l -1.375829,-0.0233 -1.37584,-0.0233 v -0.550331 -0.550333 l 1.82034,-0.02394 c 1.001179,-0.01317 1.899529,-0.0046 1.996319,0.01914 0.33371,0.08169 0.37434,0.366915 0.37434,2.627944 0,1.18222 -0.0366,2.24567 -0.0812,2.36322 -0.10155,0.26709 -0.54022,0.49396 -1.50012,0.77585 -0.941369,0.27644 -2.394349,0.34922 -3.286959,0.16463 z m 9.461559,-0.004 c -1.00856,-0.27159 -1.64948,-0.77861 -2.08522,-1.6496 -0.71449,-1.42817 -0.613,-3.711966 0.22326,-5.024245 0.96181,-1.509286 3.35836,-1.959614 4.88873,-0.918627 0.82745,0.562843 1.23189,1.385766 1.32838,2.702882 0.0415,0.56651 0.0248,0.73434 -0.0904,0.91016 l -0.14125,0.21558 h -2.63441 -2.63441 l 0.0564,0.5715 c 0.1952,1.9783 1.8171,2.70212 4.21213,1.87978 0.41396,-0.14213 0.79021,-0.23522 0.8361,-0.20685 0.0981,0.0606 0.11033,0.79949 0.0157,0.94845 -0.10621,0.16712 -0.77521,0.42499 -1.47384,0.56811 -0.79529,0.16291 -1.9021,0.16417 -2.50118,0.003 z m 2.97795,-5.139679 c -0.18414,-1.303576 -0.81882,-1.927267 -1.95929,-1.92534 -1.11264,0.0019 -1.8983,0.723511 -2.09619,1.92534 l -0.0592,0.359829 h 2.08278 2.08277 z m 24.39049,5.156999 c -0.73043,-0.24165 -1.137,-0.5659 -1.4501,-1.1565 -0.11722,-0.22112 -0.15729,-0.479 -0.15784,-1.016 -8.4e-4,-0.61148 0.0311,-0.77635 0.21094,-1.09671 0.53971,-0.96139 1.8572,-1.44025 3.96905,-1.4426 l 0.62471,-6.7e-4 -0.0385,-0.665536 c -0.0263,-0.453974 -0.0917,-0.756665 -0.20595,-0.952213 -0.50204,-0.859609 -1.78846,-0.97345 -3.23623,-0.286391 -0.71845,0.340948 -0.82107,0.355313 -0.94074,0.131704 -0.24395,-0.455829 -0.0248,-0.873994 0.62526,-1.193311 0.72503,-0.356122 1.63071,-0.531867 2.4621,-0.47777 1.31145,0.08534 2.03465,0.48672 2.42215,1.344332 0.19989,0.442377 0.20285,0.488183 0.2286,3.536055 0.0291,3.4442 0.0526,3.30446 -0.55584,3.30446 -0.49278,0 -0.61325,-0.11894 -0.61325,-0.6055 v -0.4302 l -0.34967,0.3159 c -0.553,0.49961 -1.18413,0.74761 -1.97866,0.77752 -0.40442,0.0152 -0.81379,-0.0196 -1.016,-0.0866 z m 1.92889,-1.10193 c 0.14985,-0.0631 0.49152,-0.29381 0.75928,-0.51265 l 0.48683,-0.39789 v -0.85203 -0.85202 l -1.0795,0.0361 c -1.22455,0.0409 -1.68185,0.18511 -2.07713,0.65488 -0.19124,0.22727 -0.22998,0.35439 -0.22972,0.75372 0,0.57637 0.19112,0.93717 0.60264,1.13989 0.34946,0.17216 1.16247,0.18803 1.5376,0.03 z m -22.65106,1.03932 c -0.1377,-0.0802 -0.14816,-0.36065 -0.14816,-3.97177 0,-3.01702 0.0237,-3.900086 0.10583,-3.950901 0.18238,-0.112776 1.00581,-0.06352 1.08721,0.06504 0.0409,0.06458 0.075,0.336239 0.0757,0.603692 l 10e-4,0.48628 0.57331,-0.583637 c 0.4385,-0.446392 0.66248,-0.607687 0.9525,-0.685909 0.44601,-0.120294 1.12174,-0.05931 1.4059,0.126885 0.1731,0.113416 0.20078,0.198901 0.19966,0.616554 -0.002,0.708136 -0.0422,0.74368 -0.66394,0.585886 -0.38625,-0.09802 -0.59286,-0.109597 -0.82283,-0.0461 -0.34975,0.09657 -0.88228,0.597302 -1.28521,1.208442 l -0.27472,0.416683 v 2.522505 c 0,2.40727 -0.007,2.52651 -0.16377,2.61015 -0.20834,0.1115 -0.84878,0.10917 -1.04273,-0.004 z m 6.01051,0.0329 c -0.13994,-0.0365 -0.14767,-0.27898 -0.127,-3.98531 l 0.022,-3.946433 0.27517,-0.07129 c 0.15134,-0.03921 0.39899,-0.03934 0.55033,-2.54e-4 0.27259,0.07034 0.27541,0.07636 0.30028,0.64068 l 0.0251,0.56967 0.48289,-0.430587 c 0.87967,-0.784388 1.70907,-1.04837 2.66823,-0.849249 0.66912,0.138909 1.42097,0.746922 1.60452,1.297552 0.0191,0.05718 0.26674,-0.110212 0.57246,-0.386869 0.80089,-0.724762 1.31799,-0.951062 2.15701,-0.943976 0.76534,0.0065 1.12185,0.128541 1.5991,0.547566 0.39441,0.346297 0.68618,0.911198 0.80633,1.561168 0.0542,0.293007 0.0922,1.611802 0.0922,3.194862 v 2.69587 l -0.21718,0.0826 c -0.11945,0.0454 -0.35981,0.0826 -0.53415,0.0826 -0.61053,0 -0.58933,0.0987 -0.62728,-2.921 -0.0224,-1.7796 -0.0688,-2.817378 -0.13531,-3.024199 -0.20057,-0.623714 -0.77052,-1.082129 -1.3454,-1.082129 -0.40413,0 -1.08535,0.405598 -1.58177,0.941782 l -0.46958,0.507175 v 2.706601 2.7066 l -0.21717,0.0826 c -0.11945,0.0454 -0.35982,0.0826 -0.53416,0.0826 -0.61252,0 -0.59113,0.10008 -0.62431,-2.921 -0.0255,-2.320875 -0.0508,-2.763609 -0.17658,-3.087918 -0.24781,-0.638964 -0.73482,-1.01841 -1.3071,-1.01841 -0.40413,0 -1.08535,0.405598 -1.58176,0.941782 l -0.46958,0.507203 v 2.706603 2.7066 l -0.21718,0.0826 c -0.2195,0.0834 -0.71627,0.0955 -0.99015,0.024 z m 21.97098,-0.0245 -0.19135,-0.0815 0.022,-3.91448 0.022,-3.914468 0.32552,-0.06762 c 0.17904,-0.03719 0.44574,-0.0366 0.59267,0.0013 0.26322,0.06792 0.26752,0.07737 0.29238,0.643783 l 0.0252,0.574854 0.46138,-0.436356 c 0.25376,-0.239996 0.68056,-0.53907 0.94844,-0.664607 0.41242,-0.193271 0.59735,-0.227695 1.20672,-0.224619 0.84302,0.0043 1.3212,0.180212 1.80526,0.664266 0.72833,0.728324 0.81608,1.226857 0.81794,4.647027 l 0.001,2.69026 -0.21718,0.0826 c -0.30313,0.11525 -0.82433,0.10301 -0.98992,-0.0233 -0.12253,-0.0934 -0.14179,-0.4232 -0.16435,-2.81516 l -0.0256,-2.709335 -0.254,-0.508 c -0.20579,-0.411562 -0.32572,-0.544165 -0.63178,-0.6985 -0.7324,-0.369328 -1.36885,-0.180594 -2.25255,0.667978 l -0.54467,0.523029 -0.001,2.674748 c -8.5e-4,1.47111 -0.0353,2.72847 -0.0769,2.79413 -0.092,0.14532 -0.89894,0.21002 -1.17151,0.0939 z"
         id="path201789" />
    </g>
    <text
       xml:space="preserve"
       style="font-style:normal;font-weight:normal;font-size:15.875px;line-height:1.15;font-family:sans-serif;fill:#000000;fill-opacity:1;stroke:none;stroke-width:0.264583"
       x="148.65678"
       y="165.83281"
       id="text7294"><tspan
         sodipodi:role="line"
         style="font-style:normal;font-variant:normal;font-weight:normal;font-stretch:normal;font-size:15.875px;font-family:Carlito;-inkscape-font-specification:Carlito;stroke-width:0.264583"
         x="148.65678"
         y="165.83281"
         id="tspan12632">pTx User</tspan><tspan
         sodipodi:role="line"
         style="font-style:normal;font-variant:normal;font-weight:normal;font-stretch:normal;font-size:15.875px;font-family:Carlito;-inkscape-font-specification:Carlito;stroke-width:0.264583"
         x="148.65678"
         y="184.24409"
         id="tspan12634">Meeting</tspan><tspan
         sodipodi:role="line"
         style="font-style:normal;font-variant:normal;font-weight:normal;font-stretch:normal;font-size:15.875px;font-family:Carlito;-inkscape-font-specification:Carlito;stroke-width:0.264583"
         x="148.65678"
         y="202.65536"
         id="tspan201117">Tübingen</tspan></text>
    <text
       xml:space="preserve"
       style="font-style:normal;font-weight:normal;font-size:88.1944px;line-height:1.25;font-family:sans-serif;letter-spacing:-13.2292px;fill:#000000;fill-opacity:1;stroke:none;stroke-width:0.264583"
       x="26.75082"
       y="212.87331"
       id="text91048"><tspan
         sodipodi:role="line"
         id="tspan91046"
         style="font-style:normal;font-variant:normal;font-weight:bold;font-stretch:normal;font-size:88.1944px;font-family:Carlito;-inkscape-font-specification:'Carlito Bold';fill:#4d4d4d;stroke-width:0.264583"
         x="26.75082"
         y="212.87331">p<tspan
   style="font-size:105.833px;fill:#4d4d4d"
   id="tspan109977">T</tspan>x</tspan></text>
  </g>
</svg>
